<svg xmlns="http://www.w3.org/2000/svg" width="120" height="120" viewBox="0 0 120 120">
  <g id="Group_7670" data-name="Group 7670" transform="translate(-271 -4136)">
    <g id="Group_7656" data-name="Group 7656">
      <circle id="Ellipse_108" data-name="Ellipse 108" cx="60" cy="60" r="60" transform="translate(271 4136)" fill="#38bdf8" opacity="0.6"/>
      <circle id="Ellipse_107" data-name="Ellipse 107" cx="50" cy="50" r="50" transform="translate(281 4146)" fill="#38bdf8"/>
    </g>
    <g id="value_1_" data-name="value (1)" transform="translate(300 4165)">
      <path id="Path_7372" data-name="Path 7372" d="M60.19,229.547a5.757,5.757,0,0,0-8.633-.561l-6.739,6.738a5.565,5.565,0,0,0-4.277-2H33.382a.358.358,0,0,1-.282-.136l-.754-.95a6.083,6.083,0,0,0-4.79-2.313H22.306a8.283,8.283,0,0,0-5.353,1.965l-6.489,5.505a4.2,4.2,0,0,0-5.043-.646L2.1,239.064A4.2,4.2,0,0,0,.561,244.8l8.394,14.537a4.2,4.2,0,0,0,5.732,1.536l3.324-1.919a4.2,4.2,0,0,0,2.042-4.314H38.828a8.33,8.33,0,0,0,5.864-2.436l15.016-15.083a5.772,5.772,0,0,0,.483-7.57Zm-3.032,5.033L42.142,249.662a4.708,4.708,0,0,1-3.314,1.377H18.289l-5.471-9.474-.409-.708,6.87-5.829a4.682,4.682,0,0,1,3.026-1.111h5.251a2.5,2.5,0,0,1,1.972.953l.754.95a3.936,3.936,0,0,0,3.1,1.5h7.159a1.979,1.979,0,1,1,0,3.957h-13.6a1.8,1.8,0,0,0-1.788,1.607,1.822,1.822,0,0,0-.01.191,1.8,1.8,0,0,0,1.8,1.8h13.6a5.581,5.581,0,0,0,5.57-5.352l7.99-7.989a2.16,2.16,0,0,1,3.239.21A2.166,2.166,0,0,1,57.158,234.579ZM16.213,255.836l-3.324,1.919a.6.6,0,0,1-.819-.219L3.676,243a.6.6,0,0,1,.219-.819l3.324-1.919a.6.6,0,0,1,.819.219l8.394,14.537A.6.6,0,0,1,16.213,255.836Z" transform="translate(0 -200.052)" fill="#fff"/>
      <path id="Path_7373" data-name="Path 7373" d="M152.591,26.613H171.54a3.321,3.321,0,0,0,3.223-4.125l-1.415-5.675a7.878,7.878,0,0,0-5.273-5.614,7.214,7.214,0,1,0-12.019,0,7.877,7.877,0,0,0-5.273,5.614l-1.415,5.675a3.321,3.321,0,0,0,3.223,4.125ZM162.066,3.6a3.618,3.618,0,1,1-3.617,3.618A3.622,3.622,0,0,1,162.066,3.6Zm-7.792,14.087a4.288,4.288,0,0,1,4.167-3.256h7.251a4.288,4.288,0,0,1,4.167,3.256l1.33,5.333H152.943Z" transform="translate(-131.374)" fill="#fff"/>
    </g>
  </g>
</svg>
