<svg xmlns="http://www.w3.org/2000/svg" xmlns:xlink="http://www.w3.org/1999/xlink" width="259" height="83" viewBox="0 0 259 83">
  <defs>
    <linearGradient id="linear-gradient" x1="0.808" y1="0.5" x2="-1.573" y2="0.5" gradientUnits="objectBoundingBox">
      <stop offset="0" stop-color="gold"/>
      <stop offset="0.075" stop-color="#fece00"/>
      <stop offset="0.48" stop-color="#fca704"/>
      <stop offset="0.803" stop-color="#fa8e07"/>
      <stop offset="1" stop-color="#fa8608"/>
    </linearGradient>
    <linearGradient id="linear-gradient-2" x1="0.862" y1="0.178" x2="-0.501" y2="1.948" gradientUnits="objectBoundingBox">
      <stop offset="0" stop-color="#e82b36"/>
      <stop offset="1" stop-color="#b4005a"/>
    </linearGradient>
    <linearGradient id="linear-gradient-3" x1="-0.507" y1="-0.956" x2="0.606" y2="0.489" gradientUnits="objectBoundingBox">
      <stop offset="0" stop-color="#2f8e5b"/>
      <stop offset="0.39" stop-color="#4ea157"/>
      <stop offset="0.768" stop-color="#67b054"/>
      <stop offset="1" stop-color="#70b653"/>
    </linearGradient>
  </defs>
  <g id="Group_7613" data-name="Group 7613" transform="translate(-411 -8347)">
    <rect id="Rectangle_94" data-name="Rectangle 94" width="259" height="83" rx="41.5" transform="translate(411 8347)" fill="#fff"/>
    <g id="Group_7612" data-name="Group 7612" transform="translate(-28.228 54.553)">
      <g id="Group_3" data-name="Group 3" transform="translate(433.541 8206.639)">
        <path id="Path_2" data-name="Path 2" d="M135.235,129.618a6.841,6.841,0,1,0,6.867,6.841A6.743,6.743,0,0,0,135.235,129.618Zm0,10.987a4.157,4.157,0,1,1,3.861-4.146A3.958,3.958,0,0,1,135.235,140.6Zm-14.979-10.987a6.841,6.841,0,1,0,6.866,6.841A6.743,6.743,0,0,0,120.256,129.618Zm0,10.987a4.157,4.157,0,1,1,3.86-4.146A3.958,3.958,0,0,1,120.256,140.6Zm-17.819-8.888v2.9h6.944a6.057,6.057,0,0,1-1.58,3.654,7.114,7.114,0,0,1-5.364,2.124,7.722,7.722,0,0,1,0-15.443,7.4,7.4,0,0,1,5.234,2.073l2.047-2.047a10.124,10.124,0,0,0-7.281-2.928,10.625,10.625,0,1,0,0,21.248,9.716,9.716,0,0,0,7.411-2.98,9.593,9.593,0,0,0,2.513-6.789,9.434,9.434,0,0,0-.156-1.814Zm72.873,2.254a6.359,6.359,0,0,0-5.857-4.353A6.5,6.5,0,0,0,163,136.459a6.694,6.694,0,0,0,6.788,6.841,6.8,6.8,0,0,0,5.7-3.032l-2.332-1.555a3.909,3.909,0,0,1-3.369,1.892,3.478,3.478,0,0,1-3.316-2.073l9.147-3.783Zm-9.329,2.281a3.753,3.753,0,0,1,3.576-3.991,2.648,2.648,0,0,1,2.539,1.451Zm-7.436,6.633h3.005V122.778h-3.005Zm-4.924-11.738h-.1a4.743,4.743,0,0,0-3.6-1.529,6.847,6.847,0,0,0,0,13.682,4.666,4.666,0,0,0,3.6-1.555h.1v.984c0,2.618-1.4,4.017-3.653,4.017a3.785,3.785,0,0,1-3.446-2.436L143.9,145.4a6.521,6.521,0,0,0,6.064,4.043c3.524,0,6.5-2.073,6.5-7.126V130.033h-2.851Zm-3.446,9.458a4.161,4.161,0,0,1,0-8.292c2.047,0,3.654,1.762,3.654,4.172A3.823,3.823,0,0,1,150.175,140.6Zm39.214-17.827H182.2v20.107h3v-7.618h4.191a6.254,6.254,0,1,0,0-12.489Zm.078,9.691H185.2v-6.893h4.269a3.447,3.447,0,1,1,0,6.893Zm18.547-2.888a5.635,5.635,0,0,0-5.355,3.078l2.665,1.113a2.842,2.842,0,0,1,2.742-1.475c1.552,0,3.13.931,3.156,2.587v.207a6.65,6.65,0,0,0-3.131-.776c-2.871,0-5.794,1.578-5.794,4.527,0,2.69,2.354,4.423,4.993,4.423a4.232,4.232,0,0,0,3.828-1.966h.1v1.552h2.9v-7.708C214.119,131.573,211.454,129.581,208.014,129.581Zm-.362,11.02c-.983,0-2.354-.492-2.354-1.707,0-1.552,1.707-2.148,3.182-2.148a5.347,5.347,0,0,1,2.742.673A3.638,3.638,0,0,1,207.652,140.6Zm17.021-10.58-3.441,8.717h-.1l-3.57-8.717h-3.233l5.354,12.184-3.052,6.777h3.13l8.252-18.961Zm-27.032,12.864h3V122.778h-3Z" fill="#212121"/>
        <g id="Group_2" data-name="Group 2">
          <path id="Path_3" data-name="Path 3" d="M42.43,106.772a3.219,3.219,0,0,0-.743,2.258v35.542a3.216,3.216,0,0,0,.743,2.257l.119.117,19.91-19.91v-.47l-19.91-19.91Z" fill="#40bff2"/>
          <path id="Path_4" data-name="Path 4" d="M69.1,133.675l-6.636-6.639v-.47l6.638-6.638.149.085,7.863,4.468c2.246,1.276,2.246,3.364,0,4.64l-7.863,4.468Z" fill="url(#linear-gradient)"/>
          <path id="Path_5" data-name="Path 5" d="M69.246,133.589,62.459,126.8,42.43,146.829c.741.784,1.963.881,3.34.1l23.476-13.339" fill="url(#linear-gradient-2)"/>
          <path id="Path_6" data-name="Path 6" d="M69.246,120.013,45.77,106.674c-1.377-.783-2.6-.685-3.34.1L62.459,126.8Z" fill="url(#linear-gradient-3)"/>
        </g>
      </g>
      <g id="Group_4" data-name="Group 4" transform="translate(433.541 8206.639)">
        <path id="Path_7" data-name="Path 7" d="M99.384,107.909a3.436,3.436,0,0,0-2.279-.879,3.635,3.635,0,0,0,0,7.265,2.744,2.744,0,0,0,3.021-2.555H97.435v-1.112h4.147c0,3.324-1.772,4.889-4.477,4.889a4.855,4.855,0,0,1,0-9.709,4.676,4.676,0,0,1,3.2,1.25Z" fill="#212121"/>
        <path id="Path_8" data-name="Path 8" d="M108.931,105.918v1.194h-4.326v3.022h3.777v1.195h-3.777v2.856h4.463v1.195h-5.74v-9.462Z" fill="#212121"/>
        <path id="Path_9" data-name="Path 9" d="M117.213,105.918v1.208h-2.871v8.254h-1.29v-8.254h-2.871v-1.208Z" fill="#212121"/>
        <path id="Path_10" data-name="Path 10" d="M123.34,105.918v9.462h-1.277v-9.462Z" fill="#212121"/>
        <path id="Path_11" data-name="Path 11" d="M132.047,105.918v1.208h-2.871v8.254h-1.29v-8.254h-2.871v-1.208Z" fill="#212121"/>
        <path id="Path_12" data-name="Path 12" d="M141.057,105.808a4.855,4.855,0,1,1-4.779,4.862A4.8,4.8,0,0,1,141.057,105.808Zm0,8.473a3.62,3.62,0,1,0-3.5-3.611A3.527,3.527,0,0,0,141.057,114.281Z" fill="#212121"/>
        <path id="Path_13" data-name="Path 13" d="M153.419,115.38l-4.312-7.127v7.127H147.83v-9.462h1.263l4.271,7.072v-7.072h1.277v9.462Z" fill="#212121"/>
      </g>
    </g>
  </g>
</svg>
