<svg xmlns="http://www.w3.org/2000/svg" width="133.732" height="39.584" viewBox="0 0 133.732 39.584">
  <g id="Group_7492" data-name="Group 7492" transform="translate(-140 -12)">
    <g id="LOGO_KARYA_FIX" data-name="LOGO KARYA_FIX" transform="translate(139.439 11.98)">
      <path id="Path_1" data-name="Path 1" d="M442.4,393.785a.663.663,0,0,1-.46.7,8.761,8.761,0,0,1-1.962.124,14.346,14.346,0,0,1-2.236-.124,1.461,1.461,0,0,1-.443-.131,1.092,1.092,0,0,1-.267-.354q-.9-1.666-1.8-3.327a23.947,23.947,0,0,0-1.764-2.956q-1.342.484-1.341.7,0,.932.075,2.813t.074,2.824a.379.379,0,0,1-.336.435,18.274,18.274,0,0,1-2.335.1,14.313,14.313,0,0,1-2.136-.1q-.36-.075-.36-.388,0-1.342.131-4.049t.13-4.062q0-1.44-.124-4.328t-.124-4.328q0-.274.261-.274.384,0,1.163.037t1.163.038q.4,0,1.18-.038t1.167-.037c.141,0,.212.075.212.221q0,.919-.093,2.776t-.094,2.776q0,1.068.584,1.068a3.134,3.134,0,0,0,2.3-.807,6.447,6.447,0,0,0,1.23-2.173q.4-1.2,1.3-3.552a.546.546,0,0,1,.559-.311q.323,0,.975.037t.975.038q.332,0,1-.025t.987-.025q.3,0,.3.286a9.385,9.385,0,0,1-.522,2q-1.539,4.7-3.541,5.867-.41.236-.41.388,0-.013,2.291,3.726T442.4,393.785Z" transform="translate(-412.206 -366.246)" fill="#0ea5e9"/>
      <path id="Path_2" data-name="Path 2" d="M173.694,221.039l1.955-1.944,2.155-2.155.008.006,4.843-4.814a12.671,12.671,0,1,1,14.435,0l4.843,4.815a19.428,19.428,0,1,0-28.62-5.071l-4.274,4.274a3.378,3.378,0,0,0,4.655,4.889Z" transform="translate(-167.52 -182.28)" fill="#0ea5e9"/>
      <path id="Path_3" data-name="Path 3" d="M422.422,734.22c2.175,1.692,3.83,3.041,6.006,4.734-1.212.624-2.395,1.6-3.6,2.311a.634.634,0,0,1-.831-.173c-.811-1.093-2.574-3.583-3.207-4.328a.531.531,0,0,1-.06-.715C421.3,735.449,421.566,735.054,422.422,734.22Z" transform="translate(-406.076 -703.639)" fill="#0ea5e9"/>
      <path id="Path_4" data-name="Path 4" d="M567.626,734.22c-2.175,1.692-3.83,3.041-6.006,4.734,1.213.624,2.4,1.6,3.6,2.311a.635.635,0,0,0,.831-.173c.811-1.093,2.574-3.583,3.207-4.328a.531.531,0,0,0,.06-.715C568.75,735.449,568.482,735.054,567.626,734.22Z" transform="translate(-539.268 -703.639)" fill="#0ea5e9"/>
    </g>
    <path id="Path_7370" data-name="Path 7370" d="M15.736,0h5.292l-8.6-10.864,8.12-8.736h-5.04l-8.68,9.156V-19.6H2.324V0H6.832V-4.956L9.464-7.7Zm12.74-15.288a11.58,11.58,0,0,0-6.5,1.82l1.568,3.052a7.243,7.243,0,0,1,4.34-1.4c2.352,0,3.472,1.092,3.472,2.968H27.888C23.3-8.848,21.42-7,21.42-4.34c0,2.6,2.1,4.564,5.628,4.564,2.212,0,3.78-.728,4.592-2.1V0h4.088V-8.6C35.728-13.16,33.068-15.288,28.476-15.288ZM28.14-2.716c-1.54,0-2.464-.728-2.464-1.82,0-1.008.644-1.764,2.688-1.764h3v1.54A3.218,3.218,0,0,1,28.14-2.716Zm15.708-10.36v-1.988H39.676V0h4.368V-7.112c0-2.884,1.6-4.2,4-4.2.336,0,.616.028.98.056v-4.032A6.079,6.079,0,0,0,43.848-13.076Zm19.068-1.988L58.66-4.844l-4.228-10.22H49.924L56.448.112l-.056.14C55.8,1.6,55.132,2.128,53.928,2.128a3.873,3.873,0,0,1-2.464-.952l-1.6,3.108a6.689,6.689,0,0,0,4.2,1.372c2.716,0,4.788-1.092,6.244-4.732l6.8-15.988Zm11.564-.224a11.58,11.58,0,0,0-6.5,1.82l1.568,3.052a7.243,7.243,0,0,1,4.34-1.4c2.352,0,3.472,1.092,3.472,2.968H73.892C69.3-8.848,67.424-7,67.424-4.34c0,2.6,2.1,4.564,5.628,4.564,2.212,0,3.78-.728,4.592-2.1V0h4.088V-8.6C81.732-13.16,79.072-15.288,74.48-15.288ZM74.144-2.716c-1.54,0-2.464-.728-2.464-1.82,0-1.008.644-1.764,2.688-1.764h3v1.54A3.218,3.218,0,0,1,74.144-2.716Z" transform="translate(192 42)" fill="#053648"/>
  </g>
</svg>
