<svg xmlns="http://www.w3.org/2000/svg" width="120" height="120" viewBox="0 0 120 120">
  <g id="Group_7671" data-name="Group 7671" transform="translate(-692 -4136)">
    <g id="Group_7657" data-name="Group 7657" transform="translate(421)">
      <circle id="Ellipse_108" data-name="Ellipse 108" cx="60" cy="60" r="60" transform="translate(271 4136)" fill="#38bdf8" opacity="0.6"/>
      <circle id="Ellipse_107" data-name="Ellipse 107" cx="50" cy="50" r="50" transform="translate(281 4146)" fill="#38bdf8"/>
    </g>
    <path id="rating" d="M9.955,37.81a2.4,2.4,0,0,0,3.332-.661,20.894,20.894,0,0,1,34.687-.042,2.4,2.4,0,0,0,3.986-2.682,25.639,25.639,0,0,0-12.638-9.838,13.573,13.573,0,1,0-17.212-.054A25.632,25.632,0,0,0,9.294,34.477,2.4,2.4,0,0,0,9.955,37.81ZM30.749,5.3a8.768,8.768,0,1,1-8.768,8.768A8.778,8.778,0,0,1,30.749,5.3Zm9.58,37.731L36.748,45.62a1.5,1.5,0,0,0-.552,1.688l1.442,4.18a1.516,1.516,0,0,1,.077.541,1.584,1.584,0,0,1-2.49,1.146l-3.581-2.584a1.529,1.529,0,0,0-1.787,0l-3.581,2.584a1.583,1.583,0,0,1-2.491-1.146,1.54,1.54,0,0,1,.078-.541l1.441-4.18a1.5,1.5,0,0,0-.552-1.688l-3.581-2.584a1.62,1.62,0,0,1,.894-2.9H26.49a1.384,1.384,0,0,0,1.446-.876L29.3,35.055a1.524,1.524,0,0,1,2.892,0l1.368,4.207a1.384,1.384,0,0,0,1.446.876h4.427A1.62,1.62,0,0,1,40.329,43.036Zm20.539,8.408-3.581,2.584a1.5,1.5,0,0,0-.552,1.688l1.442,4.18a1.516,1.516,0,0,1,.077.541,1.584,1.584,0,0,1-2.49,1.146L52.182,59A1.529,1.529,0,0,0,50.4,59l-3.581,2.584a1.583,1.583,0,0,1-2.491-1.146A1.54,1.54,0,0,1,44.4,59.9l1.441-4.18a1.5,1.5,0,0,0-.552-1.688l-3.581-2.584a1.62,1.62,0,0,1,.894-2.9h4.427a1.384,1.384,0,0,0,1.446-.876l1.368-4.207a1.524,1.524,0,0,1,2.892,0L54.1,47.67a1.384,1.384,0,0,0,1.446.876h4.427A1.62,1.62,0,0,1,60.869,51.444Zm-41.079,0-3.581,2.584a1.5,1.5,0,0,0-.552,1.688L17.1,59.9a1.516,1.516,0,0,1,.077.541,1.584,1.584,0,0,1-2.49,1.146L11.1,59a1.529,1.529,0,0,0-1.787,0L5.735,61.583a1.583,1.583,0,0,1-2.491-1.146,1.54,1.54,0,0,1,.078-.541l1.441-4.18a1.5,1.5,0,0,0-.552-1.688L.63,51.444a1.62,1.62,0,0,1,.894-2.9H5.95A1.384,1.384,0,0,0,7.4,47.67l1.368-4.207a1.524,1.524,0,0,1,2.892,0l1.368,4.207a1.384,1.384,0,0,0,1.446.876H18.9A1.62,1.62,0,0,1,19.79,51.444Z" transform="translate(721 4164.5)" fill="#fff"/>
  </g>
</svg>
