<svg xmlns="http://www.w3.org/2000/svg" width="120" height="120" viewBox="0 0 120 120">
  <g id="Group_7672" data-name="Group 7672" transform="translate(-1109 -4136)">
    <g id="Group_7658" data-name="Group 7658" transform="translate(838)">
      <circle id="Ellipse_108" data-name="Ellipse 108" cx="60" cy="60" r="60" transform="translate(271 4136)" fill="#38bdf8" opacity="0.6"/>
      <circle id="Ellipse_107" data-name="Ellipse 107" cx="50" cy="50" r="50" transform="translate(281 4146)" fill="#38bdf8"/>
    </g>
    <g id="low-price" transform="translate(1058.625 4165)">
      <path id="Path_7374" data-name="Path 7374" d="M122.862,35.162a19.855,19.855,0,1,0-25.265,0V41.62H92.053v5.012L110.23,61.378l18.177-14.746V41.62h-5.544ZM93.971,19.855A16.259,16.259,0,1,1,110.23,36.114,16.277,16.277,0,0,1,93.971,19.855Zm30.472,25.362L110.23,56.747,96.017,45.217h5.177V37.532a19.834,19.834,0,0,0,18.072,0v7.684h5.177Z" fill="#fff"/>
      <path id="Path_7375" data-name="Path 7375" d="M206.731,80.818h2.057a1.946,1.946,0,0,1,0,3.892h-2.093a1.882,1.882,0,0,1-1.88-1.88h-3.6a5.483,5.483,0,0,0,4.743,5.426v2.56h3.6V88.252a5.542,5.542,0,0,0-.77-11.03H206.73a1.946,1.946,0,0,1,0-3.892h2.01a1.95,1.95,0,0,1,1.948,1.948h3.6a5.553,5.553,0,0,0-4.728-5.484v-2.57h-3.6v2.564a5.542,5.542,0,0,0,.77,11.03Z" transform="translate(-97.529 -59.165)" fill="#fff"/>
    </g>
  </g>
</svg>
