<svg xmlns="http://www.w3.org/2000/svg" width="120" height="120" viewBox="0 0 120 120">
  <g id="Group_7673" data-name="Group 7673" transform="translate(-1526 -4136)">
    <g id="Group_7659" data-name="Group 7659" transform="translate(1255)">
      <circle id="Ellipse_108" data-name="Ellipse 108" cx="60" cy="60" r="60" transform="translate(271 4136)" fill="#38bdf8" opacity="0.6"/>
      <circle id="Ellipse_107" data-name="Ellipse 107" cx="50" cy="50" r="50" transform="translate(281 4146)" fill="#38bdf8"/>
    </g>
    <g id="like" transform="translate(1528 4165)">
      <g id="Group_7661" data-name="Group 7661" transform="translate(31 10.909)">
        <g id="Group_7660" data-name="Group 7660">
          <path id="Path_7376" data-name="Path 7376" d="M83.568,118.093a5.392,5.392,0,0,0-4.017-8.991H69.081A34.867,34.867,0,0,0,70.56,99.99v-1.8A7.2,7.2,0,0,0,63.368,91h-1.8a1.8,1.8,0,0,0-1.744,1.362l-.979,3.919c-1.373,5.488-5.73,11.543-10.24,12.644a5.4,5.4,0,0,0-5.018-3.419H32.8a1.8,1.8,0,0,0-1.8,1.8v32.368a1.8,1.8,0,0,0,1.8,1.8H43.587a5.4,5.4,0,0,0,4.87-3.075l6.179,2.06a19.737,19.737,0,0,0,6.255,1.015H75.955a5.4,5.4,0,0,0,5.016-7.382,5.392,5.392,0,0,0,2.6-8.8,5.384,5.384,0,0,0,0-7.193ZM45.386,136.075a1.8,1.8,0,0,1-1.8,1.8H34.6V109.1h8.991a1.8,1.8,0,0,1,1.8,1.8Zm30.569-16.184h3.6a1.8,1.8,0,0,1,0,3.6h-3.6a1.8,1.8,0,1,0,0,3.6h3.6a1.8,1.8,0,1,1,0,3.6h-3.6a1.8,1.8,0,1,0,0,3.6,1.8,1.8,0,1,1,0,3.6H60.891a16.149,16.149,0,0,1-5.119-.831l-6.79-2.263V112.528c2.821-.536,5.582-2.322,8.074-5.246a26.238,26.238,0,0,0,5.278-10.129l.639-2.557h.394a3.6,3.6,0,0,1,3.6,3.6v1.8a28.455,28.455,0,0,1-1.721,9.112H61.569a1.8,1.8,0,0,0,0,3.6H79.551a1.8,1.8,0,1,1,0,3.6h-3.6a1.8,1.8,0,1,0,0,3.6Z" transform="translate(-31 -91)" fill="#fff"/>
        </g>
      </g>
      <g id="Group_7663" data-name="Group 7663" transform="translate(38.246 50.723)">
        <g id="Group_7662" data-name="Group 7662" transform="translate(0 0)">
          <ellipse id="Ellipse_109" data-name="Ellipse 109" cx="2" cy="1.5" rx="2" ry="1.5" transform="translate(-0.246 0.277)" fill="#fff"/>
        </g>
      </g>
      <g id="Group_7665" data-name="Group 7665" transform="translate(63.368)">
        <g id="Group_7664" data-name="Group 7664">
          <path id="Path_7377" data-name="Path 7377" d="M302.8,0A1.8,1.8,0,0,0,301,1.8V5.514a1.8,1.8,0,1,0,3.6,0V1.8A1.8,1.8,0,0,0,302.8,0Z" transform="translate(-301 0)" fill="#fff"/>
        </g>
      </g>
      <g id="Group_7667" data-name="Group 7667" transform="translate(51.924 4.86)">
        <g id="Group_7666" data-name="Group 7666">
          <path id="Path_7378" data-name="Path 7378" d="M211.153,43.611l-2.543-2.543a1.8,1.8,0,0,0-2.543,2.543l2.543,2.543a1.8,1.8,0,0,0,2.543-2.543Z" transform="translate(-205.54 -40.542)" fill="#fff"/>
        </g>
      </g>
      <g id="Group_7669" data-name="Group 7669" transform="translate(72.268 4.86)">
        <g id="Group_7668" data-name="Group 7668">
          <path id="Path_7379" data-name="Path 7379" d="M380.859,41.068a1.8,1.8,0,0,0-2.543,0l-2.543,2.543a1.8,1.8,0,0,0,2.543,2.543l2.543-2.543A1.8,1.8,0,0,0,380.859,41.068Z" transform="translate(-375.247 -40.542)" fill="#fff"/>
        </g>
      </g>
    </g>
  </g>
</svg>
